<svg xmlns="http://www.w3.org/2000/svg" viewBox="0 0 250 411.42"><defs><style>.cls-1{fill:#f87171;stroke-width:10px;}.cls-1,.cls-2{stroke:#9ca3af;stroke-miterlimit:10;}.cls-2{fill:#fff;stroke-width:4.46px;}</style></defs><g id="Layer_2" data-name="Layer 2"><g id="Layer_1-2" data-name="Layer 1"><path class="cls-1" d="M245,125c0,52.42-75.07,209.58-106.46,273a15.1,15.1,0,0,1-27.08,0C80.07,334.58,5,177.42,5,125a120,120,0,0,1,240,0Z"/><path class="cls-2" d="M202,129a77,77,0,0,1-72,76.84V187.78A40.54,40.54,0,0,0,145.92,183c5.37-3,9.32-7.16,11.08-11.93V103a4,4,0,0,0-4-4h-2a4,4,0,0,0-4,4v41a4,4,0,0,1-1.17,2.83,4.52,4.52,0,0,1-.86.65,4,4,0,0,1-5.82-2.4A3.86,3.86,0,0,1,139,144V103a4,4,0,0,0-4-4h-2a4,4,0,0,0-4,4v41a4,4,0,0,1-8,0V103a4,4,0,0,0-4-4h-2a4,4,0,0,0-4,4v41a3.78,3.78,0,0,1-.29,1.47,4.08,4.08,0,0,1-.88,1.36A4,4,0,0,1,107,148a3.74,3.74,0,0,1-1.42-.27A4,4,0,0,1,103,144V103a4,4,0,0,0-4-4H97a4,4,0,0,0-4,4v62.5c0,7.07,4.71,13.38,12.08,17.5A40.12,40.12,0,0,0,120,187.67v18.17A77,77,0,1,1,202,129Z"/></g></g></svg>